<svg width="148" height="14" viewBox="0 0 148 14" fill="none" xmlns="http://www.w3.org/2000/svg">
<path d="M5.45689 13.18C4.48489 13.18 3.54289 13.042 2.63089 12.766C1.73089 12.49 1.01689 12.124 0.488887 11.668L1.29889 9.85C1.81489 10.258 2.44489 10.594 3.18889 10.858C3.94489 11.11 4.70089 11.236 5.45689 11.236C6.39289 11.236 7.08889 11.086 7.54489 10.786C8.01289 10.486 8.24689 10.09 8.24689 9.598C8.24689 9.238 8.11489 8.944 7.85089 8.716C7.59889 8.476 7.27489 8.29 6.87889 8.158C6.48289 8.026 5.94289 7.876 5.25889 7.708C4.29889 7.48 3.51889 7.252 2.91889 7.024C2.33089 6.796 1.82089 6.442 1.38889 5.962C0.968887 5.47 0.758887 4.81 0.758887 3.982C0.758887 3.286 0.944887 2.656 1.31689 2.092C1.70089 1.516 2.27089 1.06 3.02689 0.723999C3.79489 0.387999 4.73089 0.219999 5.83489 0.219999C6.60289 0.219999 7.35889 0.316 8.10289 0.508C8.84689 0.7 9.48889 0.976 10.0289 1.336L9.29089 3.154C8.73889 2.83 8.16289 2.584 7.56289 2.416C6.96289 2.248 6.38089 2.164 5.81689 2.164C4.89289 2.164 4.20289 2.32 3.74689 2.632C3.30289 2.944 3.08089 3.358 3.08089 3.874C3.08089 4.234 3.20689 4.528 3.45889 4.756C3.72289 4.984 4.05289 5.164 4.44889 5.296C4.84489 5.428 5.38489 5.578 6.06889 5.746C7.00489 5.962 7.77289 6.19 8.37289 6.43C8.97289 6.658 9.48289 7.012 9.90289 7.492C10.3349 7.972 10.5509 8.62 10.5509 9.436C10.5509 10.132 10.3589 10.762 9.97489 11.326C9.60289 11.89 9.03289 12.34 8.26489 12.676C7.49689 13.012 6.56089 13.18 5.45689 13.18ZM22.3212 11.038V13H12.8712V0.399999H22.0692V2.362H15.2112V5.638H21.2952V7.564H15.2112V11.038H22.3212ZM36.1258 0.399999V13H34.1998L27.2518 4.468V13H24.9298V0.399999H26.8558L33.8038 8.932V0.399999H36.1258ZM39.5021 0.399999H45.0101C46.3541 0.399999 47.5481 0.663999 48.5921 1.192C49.6361 1.708 50.4461 2.446 51.0221 3.406C51.5981 4.354 51.8861 5.452 51.8861 6.7C51.8861 7.948 51.5981 9.052 51.0221 10.012C50.4461 10.96 49.6361 11.698 48.5921 12.226C47.5481 12.742 46.3541 13 45.0101 13H39.5021V0.399999ZM44.9021 11.02C45.8261 11.02 46.6361 10.846 47.3321 10.498C48.0401 10.138 48.5801 9.634 48.9521 8.986C49.3361 8.326 49.5281 7.564 49.5281 6.7C49.5281 5.836 49.3361 5.08 48.9521 4.432C48.5801 3.772 48.0401 3.268 47.3321 2.92C46.6361 2.56 45.8261 2.38 44.9021 2.38H41.8421V11.02H44.9021ZM70.9218 13L70.9038 4.648L66.7638 11.56H65.7198L61.5798 4.756V13H59.3478V0.399999H61.2738L66.2778 8.752L71.1918 0.399999H73.1178L73.1358 13H70.9218ZM85.9892 11.038V13H76.5392V0.399999H85.7372V2.362H78.8792V5.638H84.9632V7.564H78.8792V11.038H85.9892ZM92.5038 13.18C91.5318 13.18 90.5898 13.042 89.6778 12.766C88.7778 12.49 88.0638 12.124 87.5358 11.668L88.3458 9.85C88.8618 10.258 89.4918 10.594 90.2358 10.858C90.9918 11.11 91.7478 11.236 92.5038 11.236C93.4398 11.236 94.1358 11.086 94.5918 10.786C95.0598 10.486 95.2938 10.09 95.2938 9.598C95.2938 9.238 95.1618 8.944 94.8978 8.716C94.6458 8.476 94.3218 8.29 93.9258 8.158C93.5298 8.026 92.9898 7.876 92.3058 7.708C91.3458 7.48 90.5658 7.252 89.9658 7.024C89.3778 6.796 88.8678 6.442 88.4358 5.962C88.0158 5.47 87.8058 4.81 87.8058 3.982C87.8058 3.286 87.9918 2.656 88.3638 2.092C88.7478 1.516 89.3178 1.06 90.0738 0.723999C90.8418 0.387999 91.7778 0.219999 92.8818 0.219999C93.6498 0.219999 94.4058 0.316 95.1498 0.508C95.8938 0.7 96.5358 0.976 97.0758 1.336L96.3378 3.154C95.7858 2.83 95.2098 2.584 94.6098 2.416C94.0098 2.248 93.4278 2.164 92.8638 2.164C91.9398 2.164 91.2498 2.32 90.7938 2.632C90.3498 2.944 90.1278 3.358 90.1278 3.874C90.1278 4.234 90.2538 4.528 90.5058 4.756C90.7698 4.984 91.0998 5.164 91.4958 5.296C91.8918 5.428 92.4318 5.578 93.1158 5.746C94.0518 5.962 94.8198 6.19 95.4198 6.43C96.0198 6.658 96.5298 7.012 96.9498 7.492C97.3818 7.972 97.5978 8.62 97.5978 9.436C97.5978 10.132 97.4058 10.762 97.0218 11.326C96.6498 11.89 96.0798 12.34 95.3118 12.676C94.5438 13.012 93.6078 13.18 92.5038 13.18ZM103.824 13.18C102.852 13.18 101.91 13.042 100.998 12.766C100.098 12.49 99.3841 12.124 98.8561 11.668L99.6661 9.85C100.182 10.258 100.812 10.594 101.556 10.858C102.312 11.11 103.068 11.236 103.824 11.236C104.76 11.236 105.456 11.086 105.912 10.786C106.38 10.486 106.614 10.09 106.614 9.598C106.614 9.238 106.482 8.944 106.218 8.716C105.966 8.476 105.642 8.29 105.246 8.158C104.85 8.026 104.31 7.876 103.626 7.708C102.666 7.48 101.886 7.252 101.286 7.024C100.698 6.796 100.188 6.442 99.7561 5.962C99.3361 5.47 99.1261 4.81 99.1261 3.982C99.1261 3.286 99.3121 2.656 99.6841 2.092C100.068 1.516 100.638 1.06 101.394 0.723999C102.162 0.387999 103.098 0.219999 104.202 0.219999C104.97 0.219999 105.726 0.316 106.47 0.508C107.214 0.7 107.856 0.976 108.396 1.336L107.658 3.154C107.106 2.83 106.53 2.584 105.93 2.416C105.33 2.248 104.748 2.164 104.184 2.164C103.26 2.164 102.57 2.32 102.114 2.632C101.67 2.944 101.448 3.358 101.448 3.874C101.448 4.234 101.574 4.528 101.826 4.756C102.09 4.984 102.42 5.164 102.816 5.296C103.212 5.428 103.752 5.578 104.436 5.746C105.372 5.962 106.14 6.19 106.74 6.43C107.34 6.658 107.85 7.012 108.27 7.492C108.702 7.972 108.918 8.62 108.918 9.436C108.918 10.132 108.726 10.762 108.342 11.326C107.97 11.89 107.4 12.34 106.632 12.676C105.864 13.012 104.928 13.18 103.824 13.18ZM119.41 10.084H113.11L111.868 13H109.456L115.126 0.399999H117.43L123.118 13H120.67L119.41 10.084ZM118.636 8.248L116.26 2.74L113.902 8.248H118.636ZM133.149 6.556H135.363V11.578C134.715 12.094 133.959 12.49 133.095 12.766C132.231 13.042 131.343 13.18 130.431 13.18C129.147 13.18 127.989 12.904 126.957 12.352C125.925 11.788 125.115 11.014 124.527 10.03C123.939 9.046 123.645 7.936 123.645 6.7C123.645 5.464 123.939 4.354 124.527 3.37C125.115 2.386 125.925 1.618 126.957 1.066C128.001 0.501999 129.171 0.219999 130.467 0.219999C131.523 0.219999 132.483 0.393999 133.347 0.741999C134.211 1.09 134.937 1.6 135.525 2.272L134.049 3.712C133.089 2.752 131.931 2.272 130.575 2.272C129.687 2.272 128.895 2.458 128.199 2.83C127.515 3.202 126.975 3.724 126.579 4.396C126.195 5.068 126.003 5.836 126.003 6.7C126.003 7.54 126.195 8.296 126.579 8.968C126.975 9.64 127.515 10.168 128.199 10.552C128.895 10.936 129.681 11.128 130.557 11.128C131.541 11.128 132.405 10.912 133.149 10.48V6.556ZM147.899 11.038V13H138.449V0.399999H147.647V2.362H140.789V5.638H146.873V7.564H140.789V11.038H147.899Z" fill="white"/>
</svg>
